<?xml version="1.0" encoding="UTF-8"?>
<svg width="400px" height="16px" viewBox="0 0 400 16" xmlns="http://www.w3.org/2000/svg" xmlns:xlink="http://www.w3.org/1999/xlink" version="1.1">
 <!-- Generated by Pixelmator Pro 2.0.7 -->
 <defs>
  <text id="string" transform="matrix(1.0 0.0 0.0 1.0 224.0 -4.0)" x="1.4475138121546962" font-family="ChalkboardSE-Regular, Chalkboard SE" text-decoration="none" fill="#ffffff" y="18.0" font-size="16">2</text>
 </defs>
 <use id="2" xlink:href="#string"/>
 <defs>
  <text id="string-1" transform="matrix(1.0 0.0 0.0 1.0 192.0 -4.0)" x="2.947513812154696" font-family="ChalkboardSE-Regular, Chalkboard SE" text-decoration="none" fill="#ffffff" y="18.0" font-size="16">1</text>
 </defs>
 <use id="1" xlink:href="#string-1"/>
 <defs>
  <text id="string-2" transform="matrix(1.0 0.0 0.0 1.0 177.0 -4.0)" x="1.4475138121546962" font-size="16" font-family="ChalkboardSE-Regular, Chalkboard SE" y="18.0" fill="#ffffff" text-decoration="none">4</text>
 </defs>
 <use id="4" xlink:href="#string-2"/>
 <defs>
  <text id="string-3" transform="matrix(1.0 0.0 0.0 1.0 163.0 -4.0)" x="1.4475138121546962" font-size="16" font-family="ChalkboardSE-Regular, Chalkboard SE" y="18.0" fill="#ffffff" text-decoration="none">5</text>
 </defs>
 <use id="5" xlink:href="#string-3"/>
 <defs>
  <text id="string-4" transform="matrix(1.0 0.0 0.0 1.0 208.0 -4.0)" y="18.0" x="1.4475138121546962" font-family="ChalkboardSE-Regular, Chalkboard SE" font-size="16" text-decoration="none" fill="#ffffff">3</text>
 </defs>
 <use id="3" xlink:href="#string-4"/>
 <defs>
  <text id="string-5" transform="matrix(1.0 0.0 0.0 1.0 61.0 -4.0)" font-family="ChalkboardSE-Regular, Chalkboard SE" x="1.4475138121546962" y="18.0" font-size="16" text-decoration="none" fill="#ffffff">2</text>
 </defs>
 <use id="2-1" xlink:href="#string-5"/>
 <defs>
  <text id="string-6" transform="matrix(1.0 0.0 0.0 1.0 43.0 -4.0)" y="18.0" x="2.947513812154696" font-family="ChalkboardSE-Regular, Chalkboard SE" font-size="16" text-decoration="none" fill="#ffffff">1</text>
 </defs>
 <use id="1-1" xlink:href="#string-6"/>
 <defs>
  <text id="string-7" transform="matrix(1.0 0.0 0.0 1.0 17.0 -4.0)" font-family="ChalkboardSE-Regular, Chalkboard SE" x="1.4475138121546962" y="18.0" font-size="16" text-decoration="none" fill="#ffffff">4</text>
 </defs>
 <use id="4-1" xlink:href="#string-7"/>
 <defs>
  <text id="string-8" transform="matrix(1.0 0.0 0.0 1.0 4.0 -4.0)" y="18.0" x="1.4475138121546962" font-family="ChalkboardSE-Regular, Chalkboard SE" font-size="16" text-decoration="none" fill="#ffffff">5</text>
 </defs>
 <use id="5-1" xlink:href="#string-8"/>
 <defs>
  <text id="string-9" transform="matrix(1.0 0.0 0.0 1.0 33.0 -4.0)" font-family="ChalkboardSE-Regular, Chalkboard SE" text-decoration="none" font-size="16" y="18.0" fill="#ffffff" x="1.4475138121546962">3</text>
 </defs>
 <use id="3-1" xlink:href="#string-9"/>
 <defs>
  <text id="string-10" transform="matrix(1.0 0.0 0.0 1.0 137.0 -4.0)" x="1.4475138121546962" font-family="ChalkboardSE-Regular, Chalkboard SE" text-decoration="none" fill="#ffffff" y="18.0" font-size="16">2</text>
 </defs>
 <use id="2-2" xlink:href="#string-10"/>
 <defs>
  <text id="string-11" transform="matrix(1.0 0.0 0.0 1.0 105.0 -4.0)" x="2.947513812154696" font-family="ChalkboardSE-Regular, Chalkboard SE" text-decoration="none" fill="#ffffff" y="18.0" font-size="16">1</text>
 </defs>
 <use id="1-2" xlink:href="#string-11"/>
 <defs>
  <text id="string-12" transform="matrix(1.0 0.0 0.0 1.0 90.0 -4.0)" x="1.4475138121546962" font-family="ChalkboardSE-Regular, Chalkboard SE" text-decoration="none" fill="#ffffff" y="18.0" font-size="16">4</text>
 </defs>
 <use id="4-2" xlink:href="#string-12"/>
 <defs>
  <text id="string-13" transform="matrix(1.0 0.0 0.0 1.0 76.0 -4.0)" x="1.4475138121546962" font-family="ChalkboardSE-Regular, Chalkboard SE" text-decoration="none" fill="#ffffff" y="18.0" font-size="16">5</text>
 </defs>
 <use id="5-2" xlink:href="#string-13"/>
 <defs>
  <text id="string-14" transform="matrix(1.0 0.0 0.0 1.0 121.0 -4.0)" x="1.4475138121546962" font-family="ChalkboardSE-Regular, Chalkboard SE" text-decoration="none" fill="#ffffff" y="18.0" font-size="16">3</text>
 </defs>
 <use id="3-2" xlink:href="#string-14"/>
 <defs>
  <text id="string-15" transform="matrix(1.0 0.0 0.0 1.0 386.0 -4.0)" x="1.4475138121546962" font-family="ChalkboardSE-Regular, Chalkboard SE" text-decoration="none" fill="#ffffff" y="18.0" font-size="16">2</text>
 </defs>
 <use id="2-3" xlink:href="#string-15"/>
 <defs>
  <text id="string-16" transform="matrix(1.0 0.0 0.0 1.0 354.0 -4.0)" x="2.947513812154696" font-family="ChalkboardSE-Regular, Chalkboard SE" text-decoration="none" fill="#ffffff" y="18.0" font-size="16">1</text>
 </defs>
 <use id="1-3" xlink:href="#string-16"/>
 <defs>
  <text id="string-17" transform="matrix(1.0 0.0 0.0 1.0 339.0 -4.0)" x="1.4475138121546962" font-family="ChalkboardSE-Regular, Chalkboard SE" text-decoration="none" fill="#ffffff" y="18.0" font-size="16">4</text>
 </defs>
 <use id="4-3" xlink:href="#string-17"/>
 <defs>
  <text id="string-18" transform="matrix(1.0 0.0 0.0 1.0 308.0 -4.0)" x="1.4475138121546962" font-family="ChalkboardSE-Regular, Chalkboard SE" text-decoration="none" fill="#ffffff" y="18.0" font-size="16">2</text>
 </defs>
 <use id="2-4" xlink:href="#string-18"/>
 <defs>
  <text id="string-19" transform="matrix(1.0 0.0 0.0 1.0 276.0 -4.0)" font-size="16" fill="#ffffff" y="18.0" text-decoration="none" font-family="ChalkboardSE-Regular, Chalkboard SE" x="2.947513812154696">1</text>
 </defs>
 <use id="1-4" xlink:href="#string-19"/>
 <defs>
  <text id="string-20" transform="matrix(1.0 0.0 0.0 1.0 261.0 -4.0)" x="1.4475138121546962" font-size="16" font-family="ChalkboardSE-Regular, Chalkboard SE" y="18.0" fill="#ffffff" text-decoration="none">4</text>
 </defs>
 <use id="4-4" xlink:href="#string-20"/>
 <defs>
  <text id="string-21" transform="matrix(1.0 0.0 0.0 1.0 247.0 -4.0)" font-family="ChalkboardSE-Regular, Chalkboard SE" text-decoration="none" font-size="16" y="18.0" fill="#ffffff" x="1.4475138121546962">5</text>
 </defs>
 <use id="5-3" xlink:href="#string-21"/>
 <defs>
  <text id="string-22" transform="matrix(1.0 0.0 0.0 1.0 292.0 -4.0)" text-decoration="none" font-family="ChalkboardSE-Regular, Chalkboard SE" x="1.4475138121546962" font-size="16" fill="#ffffff" y="18.0">3</text>
 </defs>
 <use id="3-3" xlink:href="#string-22"/>
 <defs>
  <text id="string-23" transform="matrix(1.0 0.0 0.0 1.0 325.0 -4.0)" font-family="ChalkboardSE-Regular, Chalkboard SE" x="1.4475138121546962" y="18.0" font-size="16" text-decoration="none" fill="#ffffff">5</text>
 </defs>
 <use id="5-4" xlink:href="#string-23"/>
 <defs>
  <text id="string-24" transform="matrix(1.0 0.0 0.0 1.0 370.0 -4.0)" y="18.0" x="1.4475138121546962" font-family="ChalkboardSE-Regular, Chalkboard SE" font-size="16" text-decoration="none" fill="#ffffff">3</text>
 </defs>
 <use id="3-4" xlink:href="#string-24"/>
</svg>
