<?xml version="1.0" encoding="UTF-8"?>
<svg width="80px" height="16px" viewBox="0 0 80 16" xmlns="http://www.w3.org/2000/svg" xmlns:xlink="http://www.w3.org/1999/xlink" version="1.1">
 <!-- Generated by Pixelmator Pro 2.0.7 -->
 <path id="Path-copy-3" d="M26.7 2.508 C25.575 2.508 24.6 3.083 24 3.946 23.4 3.083 22.425 2.508 21.3 2.508 19.5 2.508 18 3.946 18 5.672 18 8.836 24 13.51 24 13.51 24 13.51 30 8.836 30 5.672 30 3.946 28.5 2.508 26.7 2.508 Z" fill="#ffffff" fill-opacity="1" stroke="none"/>
 <path id="Path-copy-2" d="M74.7 2.508 C73.575 2.508 72.6 3.083 72 3.946 71.4 3.083 70.425 2.508 69.3 2.508 67.5 2.508 66 3.946 66 5.672 66 8.836 72 13.51 72 13.51 72 13.51 78 8.836 78 5.672 78 3.946 76.5 2.508 74.7 2.508 Z" fill="#ffffff" fill-opacity="1" stroke="none"/>
 <path id="Path" d="M58.7 2.508 C57.575 2.508 56.6 3.083 56 3.946 55.4 3.083 54.425 2.508 53.3 2.508 51.5 2.508 50 3.946 50 5.672 50 8.836 56 13.51 56 13.51 56 13.51 62 8.836 62 5.672 62 3.946 60.5 2.508 58.7 2.508 Z" fill="#ffffff" fill-opacity="1" stroke="none"/>
 <path id="Path-copy-1" d="M42.7 2.508 C41.575 2.508 40.6 3.083 40 3.946 39.4 3.083 38.425 2.508 37.3 2.508 35.5 2.508 34 3.946 34 5.672 34 8.836 40 13.51 40 13.51 40 13.51 46 8.836 46 5.672 46 3.946 44.5 2.508 42.7 2.508 Z" fill="#ffffff" fill-opacity="1" stroke="none"/>
 <path id="Path-copy" d="M10.7 2.508 C9.575 2.508 8.6 3.083 8 3.946 7.4 3.083 6.425 2.508 5.3 2.508 3.5 2.508 2 3.946 2 5.672 2 8.836 8 13.51 8 13.51 8 13.51 14 8.836 14 5.672 14 3.946 12.5 2.508 10.7 2.508 Z" fill="#ffffff" fill-opacity="1" stroke="none"/>
</svg>
